Coordinates
version=1
nRows=29
nColumns=24
inDegrees=yes

Units are S.I. units (second, meters, Newtons, ...)
Angles are in degrees.

endheader
time	pelvis_tilt	pelvis_list	pelvis_rotation	pelvis_tx	pelvis_ty	pelvis_tz	hip_flexion_r	hip_adduction_r	hip_rotation_r	knee_angle_r	ankle_angle_r	subtalar_angle_r	mtp_angle_r	hip_flexion_l	hip_adduction_l	hip_rotation_l	knee_angle_l	ankle_angle_l	subtalar_angle_l	mtp_angle_l	lumbar_extension	lumbar_bending	lumbar_rotation
      4.99000000	     60.44460382	      4.34412335	      8.15654756	      0.77861937	      1.08442269	     -0.27299061	     -2.07093385	    -12.40155621	     -5.00468456	    -57.61573592	    -14.93917802	     -4.01686561	     34.76907659	      9.59656234	    -17.33711377	     -1.17470059	    -62.02954444	     -4.43589777	     13.47545744	    -41.40979366	      0.00000000	      0.00000000	      0.00000000
      5.00000000	     60.50266141	      4.34625684	      8.14830516	      0.77852987	      1.08441912	     -0.27317543	     -2.06184574	    -12.41800736	     -4.95512001	    -57.66823498	    -14.87851659	     -4.22566022	     34.30165267	      9.64805905	    -17.27186984	     -1.41060404	    -62.83450675	     -4.46465669	     13.82554430	    -41.73766666	      0.00000000	      0.00000000	      0.00000000
      5.01000000	     60.54444591	      4.34084308	      8.14371018	      0.77850434	      1.08440454	     -0.27336133	     -2.04033285	    -12.43046466	     -4.92068874	    -57.74319871	    -14.82603790	     -4.43398567	     33.91940124	      9.71136037	    -17.20394465	     -1.58630432	    -63.64072724	     -4.50598526	     14.21836541	    -42.03731660	      0.00000000	      0.00000000	      0.00000000
      5.02000000	     60.56438121	      4.32663535	      8.14096745	      0.77850808	      1.08438216	     -0.27353807	     -2.00082777	    -12.43576409	     -4.89800747	    -57.84026781	    -14.78173185	     -4.62689126	     33.62991021	      9.78901339	    -17.13704621	     -1.71134667	    -64.43431086	     -4.56201560	     14.64231788	    -42.30911071	      0.00000000	      0.00000000	      0.00000000
      5.03000000	     60.56012852	      4.30292807	      8.13826270	      0.77853312	      1.08436490	     -0.27368933	     -1.94080764	    -12.43187025	     -4.88315045	    -57.95795653	    -14.74235304	     -4.78907017	     33.43181424	      9.88057397	    -17.07572206	     -1.79606802	    -65.20106562	     -4.63437503	     15.08303150	    -42.55823791	      0.00000000	      0.00000000	      0.00000000
      5.04000000	     60.53342419	      4.26982251	      8.13416269	      0.77858318	      1.08436368	     -0.27379797	     -1.86223353	    -12.41787200	     -4.87264146	    -58.09343386	    -14.70176695	     -4.90699994	     33.31665050	      9.98035537	    -17.02432181	     -1.85010411	    -65.92917311	     -4.72309496	     15.52410316	    -42.79274726	      0.00000000	      0.00000000	      0.00000000
      5.05000000	     60.48889804	      4.22848476	      8.12725704	      0.77866981	      1.08437921	     -0.27386031	     -1.77268365	    -12.39347780	     -4.86393093	    -58.24252264	    -14.65223768	     -4.97104425	     33.27150485	     10.07743007	    -16.98585812	     -1.88116452	    -66.61098957	     -4.82612936	     15.94822062	    -43.02132985	      0.00000000	      0.00000000	      0.00000000
      5.06000000	     60.43305564	      4.18078180	      8.11613782	      0.77881615	      1.08440297	     -0.27388775	     -1.68455171	    -12.35872219	     -4.85539088	    -58.39954438	    -14.58652909	     -4.97728048	     33.28192730	     10.15840536	    -16.96082006	     -1.89484942	    -67.24306679	     -4.93928721	     16.33853249	    -43.25134238	      0.00000000	      0.00000000	      0.00000000
      5.07000000	     60.37408504	      4.12914745	      8.09970227	      0.77903270	      1.08443977	     -0.27389643	     -1.61210647	    -12.31457801	     -4.84610556	    -58.55749916	    -14.50054644	     -4.92872908	     33.33460567	     10.21180103	    -16.94721569	     -1.89494647	    -67.82491305	     -5.05653978	     16.68007623	    -43.48745466	      0.00000000	      0.00000000	      0.00000000
      5.08000000	     60.32101074	      4.07687398	      8.07743397	      0.77930426	      1.08450871	     -0.27389646	     -1.56785030	    -12.26424780	     -4.83598979	    -58.70976895	    -14.39597305	     -4.83551572	     33.41941482	     10.23098841	    -16.94224525	     -1.88350244	    -68.35790434	     -5.17079157	     16.96100701	    -43.73109339	      0.00000000	      0.00000000	      0.00000000
      5.09000000	     60.28100120	      4.02762643	      8.04961294	      0.77960549	      1.08459539	     -0.27387871	     -1.55963818	    -12.21350770	     -4.82681031	    -58.85368335	    -14.28200348	     -4.71349733	     33.53064314	     10.21361270	    -16.94393160	     -1.86106931	    -68.84498094	     -5.27503123	     17.17332713	    -43.98060926	      0.00000000	      0.00000000	      0.00000000
      5.10000000	     60.25689297	      3.98433022	      8.01725377	      0.77991386	      1.08463323	     -0.27381624	     -1.58847910	    -12.16872472	     -4.82373656	    -58.99382677	    -14.17490784	     -4.58127729	     33.66737700	     10.15901270	    -16.95139903	     -1.82748812	    -69.29030751	     -5.36355855	     17.31294043	    -44.23189225	      0.00000000	      0.00000000	      0.00000000
      5.11000000	     60.24865481	      3.94872234	      7.98160347	      0.78022144	      1.08460399	     -0.27370539	     -1.64685370	    -12.13349140	     -4.83547101	    -59.14155246	    -14.09430967	     -4.45618690	     33.83314881	     10.06771987	    -16.96419034	     -1.78274313	    -69.69748872	     -5.43283931	     17.37919068	    -44.47908286	      0.00000000	      0.00000000	      0.00000000
      5.12000000	     60.25625566	      3.92123506	      7.94364521	      0.78054003	      1.08462401	     -0.27359955	     -1.72043873	    -12.10696340	     -4.87065775	    -59.30925613	    -14.05634589	     -4.35032826	     34.03498330	      9.94408516	    -16.98182664	     -1.72703250	    -70.06694678	     -5.48173588	     17.37432136	    -44.71509757	      0.00000000	      0.00000000	      0.00000000
      5.13000000	     60.27693924	      3.89970558	      7.90456205	      0.78086997	      1.08478170	     -0.27353707	     -1.79587459	    -12.08607960	     -4.93101533	    -59.50220238	    -14.06615264	     -4.26793023	     34.28193090	      9.79799442	    -17.00416180	     -1.65986886	    -70.39561636	     -5.51130332	     17.30325347	    -44.93184498	      0.00000000	      0.00000000	      0.00000000
      5.14000000	     60.30149746	      3.87945505	      7.86646818	      0.78118047	      1.08497069	     -0.27346875	     -1.86759601	    -12.06797569	     -5.00757453	    -59.71385078	    -14.11421130	     -4.20497397	     34.58316721	      9.64310290	    -17.03155435	     -1.57961774	    -70.68018171	     -5.52446755	     17.17370153	    -45.12017820	      0.00000000	      0.00000000	      0.00000000
      5.15000000	     60.31870225	      3.85723349	      7.83170735	      0.78144696	      1.08506071	     -0.27334093	     -1.93597145	    -12.04907894	     -5.08502042	    -59.92876690	    -14.17970351	     -4.15136799	     34.94585153	      9.49370124	    -17.06439351	     -1.48439225	    -70.92084354	     -5.52567959	     16.99625907	    -45.26978346	      0.00000000	      0.00000000	      0.00000000
      5.16000000	     60.32200677	      3.83390763	      7.80163353	      0.78167450	      1.08508422	     -0.27317642	     -2.00240303	    -12.02516099	     -5.14925997	    -60.13109585	    -14.23912183	     -4.09502367	     35.37315286	      9.36215037	    -17.10295732	     -1.37306030	    -71.12234412	     -5.52033448	     16.78400345	    -45.36933506	      0.00000000	      0.00000000	      0.00000000
      5.17000000	     60.31053071	      3.81251911	      7.77667376	      0.78187923	      1.08514197	     -0.27302592	     -2.06743803	    -11.99450096	     -5.19214839	    -60.31296820	    -14.27551734	     -4.02636836	     35.86298949	      9.25671717	    -17.14762540	     -1.24537593	    -71.29198339	     -5.51376290	     16.55142517	    -45.40730266	      0.00000000	      0.00000000	      0.00000000
      5.18000000	     60.28642832	      3.79531266	      7.75705290	      0.78207169	      1.08524164	     -0.27289671	     -2.12994202	    -11.96008382	     -5.21311041	    -60.47862772	    -14.28458164	     -3.94166595	     36.40788166	      9.17999780	    -17.19869083	     -1.10153334	    -71.43645895	     -5.51013410	     16.31287852	    -45.37371743	      0.00000000	      0.00000000	      0.00000000
      5.19000000	     60.25288640	      3.78285146	      7.74296807	      0.78225304	      1.08529126	     -0.27275377	     -2.18539094	    -11.92809713	     -5.21892694	    -60.64314860	    -14.27570696	     -3.84400586	     36.99596522	      9.12870359	    -17.25566311	     -0.94166959	    -71.55943157	     -5.51185549	     16.08089831	    -45.26297644	      0.00000000	      0.00000000	      0.00000000
      5.20000000	     60.21417031	      3.77522473	      7.73429885	      0.78241384	      1.08524318	     -0.27258374	     -2.22461286	    -11.90398353	     -5.22153807	    -60.82658637	    -14.26788267	     -3.74170377	     37.61288436	      9.09552966	    -17.31671571	     -0.76561521	    -71.66069519	     -5.51955655	     15.86461490	    -45.07744558	      0.00000000	      0.00000000	      0.00000000
      5.21000000	     60.17572336	      3.77356247	      7.73029646	      0.78254054	      1.08519916	     -0.27243562	     -2.23660185	    -11.88979087	     -5.23289605	    -61.04539803	    -14.28168075	     -3.64485160	     38.24406107	      9.07340298	    -17.37920374	     -0.57282804	    -71.73682429	     -5.53225657	     15.66848375	    -44.83129715	      0.00000000	      0.00000000	      0.00000000
      5.22000000	     60.14105988	      3.77907498	      7.73020584	      0.78262817	      1.08526175	     -0.27235040	     -2.21652050	    -11.88564422	     -5.25764036	    -61.30437416	    -14.33026678	     -3.56145046	     38.87673148	      9.05953590	    -17.44099381	     -0.36250613	    -71.78306748	     -5.54749796	     15.49179193	    -44.55376061	      0.00000000	      0.00000000	      0.00000000
      5.23000000	     60.10905678	      3.79124361	      7.73460671	      0.78267890	      1.08536264	     -0.27229166	     -2.17077730	    -11.89211966	     -5.28945155	    -61.59396592	    -14.41402442	     -3.49466146	     39.50118251	      9.05527131	    -17.50131047	     -0.13406000	    -71.79606783	     -5.56164978	     15.32950926	    -44.29082244	      0.00000000	      0.00000000	      0.00000000
      5.24000000	     60.07734337	      3.80895696	      7.74522493	      0.78269397	      1.08538983	     -0.27221892	     -2.11230248	    -11.90909733	     -5.31600045	    -61.89540877	    -14.52178654	     -3.44218766	     40.11086600	      9.06195158	    -17.56047216	      0.11208405	    -71.77585690	     -5.57069059	     15.17464340	    -44.10443389	      0.00000000	      0.00000000	      0.00000000
      5.25000000	     60.04720932	      3.83196270	      7.76297513	      0.78267645	      1.08533928	     -0.27214912	     -2.05333100	    -11.93404957	     -5.32756585	    -62.18966098	    -14.63681753	     -3.39786360	     40.70148131	      9.07727213	    -17.61899962	      0.37370035	    -71.72537379	     -5.57157097	     15.02162128	    -44.06851035	      0.00000000	      0.00000000	      0.00000000
      5.26000000	     60.02406557	      3.86031886	      7.78632781	      0.78262991	      1.08526361	     -0.27211298	     -2.00296455	    -11.96309533	     -5.32168449	    -62.46401662	    -14.74334029	     -3.35456660	     41.26950030	      9.09479717	    -17.67726037	      0.64684139	    -71.64739935	     -5.56386022	     14.86970168	    -44.26140435	      0.00000000	      0.00000000	      0.00000000
      5.27000000	     60.01445442	      3.89350922	      7.81162510	      0.78256158	      1.08519394	     -0.27211650	     -1.96757966	    -11.99325150	     -5.30209689	    -62.71371760	    -14.83077840	     -3.30711685	     41.81072078	      9.10560197	    -17.73599934	      0.92721387	    -71.54031137	     -5.55106022	     14.72514606	    -44.75508305	      0.00000000	      0.00000000	      0.00000000
